<svg width="424" height="363" viewBox="0 0 424 363" fill="none" xmlns="http://www.w3.org/2000/svg">
<path d="M149.234 119.145C150.016 117.842 150.569 116.443 150.895 114.945C151.22 113.383 151.643 111.983 152.164 110.746C152.685 109.444 153.434 108.37 154.41 107.523C155.387 106.677 156.852 106.254 158.805 106.254H161.344C162.255 106.97 162.841 107.751 163.102 108.598C163.427 109.379 163.59 110.355 163.59 111.527C163.59 113.155 163.427 115.01 163.102 117.094C162.776 119.177 162.19 121.13 161.344 122.953C160.562 124.776 159.456 126.306 158.023 127.543C156.656 128.78 154.898 129.398 152.75 129.398C152.555 129.398 152.262 129.366 151.871 129.301C151.48 129.171 151.09 129.008 150.699 128.812C150.309 128.617 149.951 128.422 149.625 128.227C149.365 127.966 149.234 127.706 149.234 127.445V119.145ZM121.305 117.387V115.043C121.63 114.522 122.086 114.066 122.672 113.676C123.323 113.22 124.007 112.992 124.723 112.992C124.918 112.992 125.243 113.025 125.699 113.09C126.22 113.155 126.708 113.253 127.164 113.383C127.685 113.448 128.141 113.546 128.531 113.676C128.987 113.741 129.28 113.806 129.41 113.871C129.605 113.871 130.061 114.132 130.777 114.652C131.493 115.108 132.014 115.466 132.34 115.727C132.6 116.052 133.121 116.605 133.902 117.387C134.684 118.103 135.497 118.917 136.344 119.828C137.19 120.674 137.971 121.521 138.688 122.367C139.469 123.148 139.99 123.702 140.25 124.027C140.771 124.874 141.259 125.915 141.715 127.152C142.236 128.324 142.496 129.366 142.496 130.277C142.496 130.668 142.366 130.993 142.105 131.254C141.845 131.449 141.52 131.612 141.129 131.742C140.803 131.807 140.445 131.872 140.055 131.938C139.664 131.938 139.339 131.938 139.078 131.938C137.776 131.938 136.539 131.742 135.367 131.352C134.26 130.896 133.186 130.342 132.145 129.691C131.103 129.04 130.061 128.324 129.02 127.543C128.043 126.762 127.066 125.98 126.09 125.199C125.178 124.548 124.43 123.995 123.844 123.539C123.258 123.018 122.77 122.497 122.379 121.977C121.988 121.456 121.695 120.87 121.5 120.219C121.37 119.503 121.305 118.559 121.305 117.387ZM159.879 140.922V140.238C160.009 140.043 160.204 139.75 160.465 139.359C160.725 138.904 160.986 138.48 161.246 138.09C161.572 137.634 161.865 137.243 162.125 136.918C162.385 136.527 162.581 136.234 162.711 136.039C162.971 135.779 163.46 135.421 164.176 134.965C164.892 134.444 165.315 134.184 165.445 134.184H172.184C172.639 134.574 173.128 134.867 173.648 135.062C174.169 135.258 174.69 135.421 175.211 135.551C175.732 135.616 176.253 135.746 176.773 135.941C177.294 136.137 177.783 136.43 178.238 136.82C178.368 136.885 178.564 137.048 178.824 137.309C179.15 137.504 179.443 137.764 179.703 138.09C180.029 138.35 180.289 138.611 180.484 138.871C180.745 139.132 180.908 139.359 180.973 139.555C180.973 139.685 180.875 140.01 180.68 140.531C180.549 140.987 180.484 141.28 180.484 141.41C180.289 141.605 180.029 141.931 179.703 142.387C179.443 142.842 179.15 143.298 178.824 143.754C178.564 144.145 178.303 144.535 178.043 144.926C177.783 145.251 177.62 145.447 177.555 145.512C176.969 146.163 176.318 146.586 175.602 146.781C174.885 146.911 174.104 146.977 173.258 146.977H171.305H168.18C168.115 146.977 167.919 146.911 167.594 146.781C167.268 146.586 166.878 146.391 166.422 146.195C166.031 145.935 165.608 145.707 165.152 145.512C164.697 145.251 164.339 145.023 164.078 144.828C163.036 144.307 162.06 143.819 161.148 143.363C160.302 142.842 159.879 142.029 159.879 140.922ZM117.301 149.711V148.832C117.366 148.637 117.431 148.376 117.496 148.051C117.561 147.66 117.626 147.302 117.691 146.977C117.757 146.586 117.822 146.26 117.887 146C117.952 145.674 117.984 145.512 117.984 145.512C118.245 144.991 118.831 144.535 119.742 144.145C120.719 143.689 121.793 143.298 122.965 142.973C124.137 142.647 125.276 142.354 126.383 142.094C127.555 141.833 128.401 141.605 128.922 141.41C128.987 141.41 129.117 141.345 129.312 141.215C129.573 141.085 129.833 140.954 130.094 140.824C130.419 140.694 130.712 140.564 130.973 140.434C131.233 140.303 131.396 140.238 131.461 140.238H131.852C131.852 140.238 132.177 140.336 132.828 140.531C133.544 140.727 134.293 140.954 135.074 141.215C135.921 141.475 136.669 141.801 137.32 142.191C138.036 142.517 138.395 142.81 138.395 143.07V143.656C138.264 143.656 138.036 143.819 137.711 144.145C137.451 144.47 137.19 144.698 136.93 144.828C135.823 145.74 134.651 146.814 133.414 148.051C132.177 149.223 130.875 150.362 129.508 151.469C128.141 152.51 126.708 153.422 125.211 154.203C123.779 154.919 122.314 155.277 120.816 155.277C119.189 155.277 118.18 154.724 117.789 153.617C117.464 152.51 117.301 151.208 117.301 149.711ZM148.551 146.293C150.178 146.553 151.513 147.172 152.555 148.148C153.596 149.06 154.443 150.167 155.094 151.469C155.81 152.771 156.363 154.171 156.754 155.668C157.21 157.165 157.633 158.565 158.023 159.867V160.551C158.023 161.462 157.958 162.471 157.828 163.578C157.698 164.685 157.405 165.727 156.949 166.703C156.493 167.615 155.875 168.396 155.094 169.047C154.312 169.698 153.303 170.023 152.066 170.023C150.764 170.023 149.723 169.6 148.941 168.754C148.16 167.908 147.509 166.964 146.988 165.922C146.793 165.661 146.598 165.336 146.402 164.945C146.207 164.49 146.012 164.034 145.816 163.578C145.621 163.122 145.458 162.732 145.328 162.406C145.198 162.016 145.133 161.788 145.133 161.723V151.078C145.133 150.036 145.523 149.092 146.305 148.246C147.086 147.4 147.835 146.749 148.551 146.293ZM199.43 169.633C199.951 168.396 200.504 167.354 201.09 166.508C201.741 165.596 202.424 164.815 203.141 164.164C203.922 163.448 204.768 162.797 205.68 162.211C206.591 161.625 207.6 161.007 208.707 160.355C209.423 159.9 209.879 159.639 210.074 159.574C210.27 159.509 210.66 159.477 211.246 159.477C211.507 159.477 212.158 159.672 213.199 160.062C214.241 160.388 215.348 160.811 216.52 161.332C217.691 161.788 218.766 162.243 219.742 162.699C220.784 163.155 221.467 163.48 221.793 163.676C223.421 164.783 224.365 165.954 224.625 167.191C224.951 168.363 225.113 169.861 225.113 171.684V172.367C224.723 174.516 224.267 176.436 223.746 178.129C223.29 179.757 222.607 181.156 221.695 182.328C220.784 183.5 219.547 184.379 217.984 184.965C216.487 185.551 214.534 185.844 212.125 185.844C211.604 185.844 211.246 185.811 211.051 185.746C210.855 185.681 210.367 185.486 209.586 185.16C209.26 184.965 208.805 184.77 208.219 184.574C207.633 184.379 207.047 184.184 206.461 183.988C205.875 183.793 205.354 183.63 204.898 183.5C204.443 183.305 204.215 183.174 204.215 183.109C203.759 182.914 203.336 182.556 202.945 182.035C202.62 181.514 202.294 180.961 201.969 180.375C201.708 179.724 201.448 179.138 201.188 178.617C200.992 178.031 200.862 177.576 200.797 177.25C200.732 176.924 200.634 176.404 200.504 175.688C200.374 174.906 200.211 174.125 200.016 173.344C199.885 172.562 199.755 171.846 199.625 171.195C199.495 170.479 199.43 169.958 199.43 169.633ZM197.379 234.379C197.379 231.124 198.062 228.227 199.43 225.688C200.862 223.148 202.848 220.902 205.387 218.949C206.428 219.405 207.372 219.73 208.219 219.926C209.13 220.056 210.009 220.154 210.855 220.219C211.767 220.219 212.711 220.219 213.688 220.219C214.664 220.219 215.771 220.251 217.008 220.316C217.138 220.447 217.431 220.577 217.887 220.707C218.408 220.837 218.733 221 218.863 221.195C219.059 221.195 219.449 221.391 220.035 221.781C220.621 222.172 221.272 222.628 221.988 223.148C222.704 223.604 223.388 224.092 224.039 224.613C224.755 225.069 225.276 225.427 225.602 225.688C225.797 225.688 225.96 225.818 226.09 226.078C226.22 226.273 226.35 226.371 226.48 226.371C226.48 226.566 226.513 226.924 226.578 227.445C226.643 227.966 226.708 228.52 226.773 229.105C226.839 229.691 226.904 230.245 226.969 230.766C227.034 231.286 227.099 231.645 227.164 231.84V233.012C227.164 235.095 226.546 237.016 225.309 238.773C224.137 240.466 222.737 241.964 221.109 243.266C220.849 243.461 220.491 243.721 220.035 244.047C219.579 244.372 219.124 244.698 218.668 245.023C218.277 245.284 217.919 245.512 217.594 245.707C217.268 245.902 217.073 246 217.008 246H208.219C208.154 246 207.926 245.935 207.535 245.805C207.21 245.609 206.819 245.414 206.363 245.219C205.973 244.958 205.549 244.73 205.094 244.535C204.703 244.275 204.41 244.079 204.215 243.949C204.15 243.884 203.987 243.721 203.727 243.461C203.466 243.201 203.173 242.94 202.848 242.68C202.587 242.354 202.294 242.094 201.969 241.898C201.708 241.638 201.546 241.475 201.48 241.41C200.309 240.368 199.332 239.424 198.551 238.578C197.77 237.667 197.379 236.267 197.379 234.379ZM278.727 119.145C279.508 117.842 280.061 116.443 280.387 114.945C280.712 113.383 281.135 111.983 281.656 110.746C282.177 109.444 282.926 108.37 283.902 107.523C284.879 106.677 286.344 106.254 288.297 106.254H290.836C291.747 106.97 292.333 107.751 292.594 108.598C292.919 109.379 293.082 110.355 293.082 111.527C293.082 113.155 292.919 115.01 292.594 117.094C292.268 119.177 291.682 121.13 290.836 122.953C290.055 124.776 288.948 126.306 287.516 127.543C286.148 128.78 284.391 129.398 282.242 129.398C282.047 129.398 281.754 129.366 281.363 129.301C280.973 129.171 280.582 129.008 280.191 128.812C279.801 128.617 279.443 128.422 279.117 128.227C278.857 127.966 278.727 127.706 278.727 127.445V119.145ZM250.797 117.387V115.043C251.122 114.522 251.578 114.066 252.164 113.676C252.815 113.22 253.499 112.992 254.215 112.992C254.41 112.992 254.736 113.025 255.191 113.09C255.712 113.155 256.201 113.253 256.656 113.383C257.177 113.448 257.633 113.546 258.023 113.676C258.479 113.741 258.772 113.806 258.902 113.871C259.098 113.871 259.553 114.132 260.27 114.652C260.986 115.108 261.507 115.466 261.832 115.727C262.092 116.052 262.613 116.605 263.395 117.387C264.176 118.103 264.99 118.917 265.836 119.828C266.682 120.674 267.464 121.521 268.18 122.367C268.961 123.148 269.482 123.702 269.742 124.027C270.263 124.874 270.751 125.915 271.207 127.152C271.728 128.324 271.988 129.366 271.988 130.277C271.988 130.668 271.858 130.993 271.598 131.254C271.337 131.449 271.012 131.612 270.621 131.742C270.296 131.807 269.938 131.872 269.547 131.938C269.156 131.938 268.831 131.938 268.57 131.938C267.268 131.938 266.031 131.742 264.859 131.352C263.753 130.896 262.678 130.342 261.637 129.691C260.595 129.04 259.553 128.324 258.512 127.543C257.535 126.762 256.559 125.98 255.582 125.199C254.671 124.548 253.922 123.995 253.336 123.539C252.75 123.018 252.262 122.497 251.871 121.977C251.48 121.456 251.188 120.87 250.992 120.219C250.862 119.503 250.797 118.559 250.797 117.387ZM289.371 140.922V140.238C289.501 140.043 289.697 139.75 289.957 139.359C290.217 138.904 290.478 138.48 290.738 138.09C291.064 137.634 291.357 137.243 291.617 136.918C291.878 136.527 292.073 136.234 292.203 136.039C292.464 135.779 292.952 135.421 293.668 134.965C294.384 134.444 294.807 134.184 294.938 134.184H301.676C302.132 134.574 302.62 134.867 303.141 135.062C303.661 135.258 304.182 135.421 304.703 135.551C305.224 135.616 305.745 135.746 306.266 135.941C306.786 136.137 307.275 136.43 307.73 136.82C307.861 136.885 308.056 137.048 308.316 137.309C308.642 137.504 308.935 137.764 309.195 138.09C309.521 138.35 309.781 138.611 309.977 138.871C310.237 139.132 310.4 139.359 310.465 139.555C310.465 139.685 310.367 140.01 310.172 140.531C310.042 140.987 309.977 141.28 309.977 141.41C309.781 141.605 309.521 141.931 309.195 142.387C308.935 142.842 308.642 143.298 308.316 143.754C308.056 144.145 307.796 144.535 307.535 144.926C307.275 145.251 307.112 145.447 307.047 145.512C306.461 146.163 305.81 146.586 305.094 146.781C304.378 146.911 303.596 146.977 302.75 146.977H300.797H297.672C297.607 146.977 297.411 146.911 297.086 146.781C296.76 146.586 296.37 146.391 295.914 146.195C295.523 145.935 295.1 145.707 294.645 145.512C294.189 145.251 293.831 145.023 293.57 144.828C292.529 144.307 291.552 143.819 290.641 143.363C289.794 142.842 289.371 142.029 289.371 140.922ZM246.793 149.711V148.832C246.858 148.637 246.923 148.376 246.988 148.051C247.053 147.66 247.118 147.302 247.184 146.977C247.249 146.586 247.314 146.26 247.379 146C247.444 145.674 247.477 145.512 247.477 145.512C247.737 144.991 248.323 144.535 249.234 144.145C250.211 143.689 251.285 143.298 252.457 142.973C253.629 142.647 254.768 142.354 255.875 142.094C257.047 141.833 257.893 141.605 258.414 141.41C258.479 141.41 258.609 141.345 258.805 141.215C259.065 141.085 259.326 140.954 259.586 140.824C259.911 140.694 260.204 140.564 260.465 140.434C260.725 140.303 260.888 140.238 260.953 140.238H261.344C261.344 140.238 261.669 140.336 262.32 140.531C263.036 140.727 263.785 140.954 264.566 141.215C265.413 141.475 266.161 141.801 266.812 142.191C267.529 142.517 267.887 142.81 267.887 143.07V143.656C267.757 143.656 267.529 143.819 267.203 144.145C266.943 144.47 266.682 144.698 266.422 144.828C265.315 145.74 264.143 146.814 262.906 148.051C261.669 149.223 260.367 150.362 259 151.469C257.633 152.51 256.201 153.422 254.703 154.203C253.271 154.919 251.806 155.277 250.309 155.277C248.681 155.277 247.672 154.724 247.281 153.617C246.956 152.51 246.793 151.208 246.793 149.711ZM278.043 146.293C279.671 146.553 281.005 147.172 282.047 148.148C283.089 149.06 283.935 150.167 284.586 151.469C285.302 152.771 285.855 154.171 286.246 155.668C286.702 157.165 287.125 158.565 287.516 159.867V160.551C287.516 161.462 287.451 162.471 287.32 163.578C287.19 164.685 286.897 165.727 286.441 166.703C285.986 167.615 285.367 168.396 284.586 169.047C283.805 169.698 282.796 170.023 281.559 170.023C280.257 170.023 279.215 169.6 278.434 168.754C277.652 167.908 277.001 166.964 276.48 165.922C276.285 165.661 276.09 165.336 275.895 164.945C275.699 164.49 275.504 164.034 275.309 163.578C275.113 163.122 274.951 162.732 274.82 162.406C274.69 162.016 274.625 161.788 274.625 161.723V151.078C274.625 150.036 275.016 149.092 275.797 148.246C276.578 147.4 277.327 146.749 278.043 146.293Z" fill="black"/>
</svg>
